# xmcd CD database file
#
# Track frame offsets:
#	150
#	21152
#	38125
#	60332
#	78145
#	100557
#	122792
#	147420
#	169445
#	191865
#	208080
#	229390
#	243505
#	268387
#
# Disc length: 3863 seconds
#
# Revision: 6
# Processed by: cddbd v1.5.1PL0 Copyright (c) Steve Scherf et al.
# Submitted via: CDex 1.51
#
DISCID=cb0f150e
DTITLE=Kid Rock - Cocky
DYEAR=2001
DGENRE=Rock
TTITLE0=Trucker Anthem
TTITLE1=Forever
TTITLE2=Lay It On Me
TTITLE3=Cocky
TTITLE4=What I Learned Out On The Road
TTITLE5=I'm Wrong But You Ain't Right
TTITLE6=Lonely Road Of Faith
TTITLE7=You Never Met A Motherf**ker Quite Like Me
TTITLE8=Picture
TTITLE9=I'm A Dog
TTITLE10=Midnight Train To Memphis
TTITLE11=Baby Come Home
TTITLE12=Drunk In The Morning
TTITLE13=Wcsr
EXTD=YEAR: 2001
EXTT0=
EXTT1=
EXTT2=
EXTT3=
EXTT4=
EXTT5=
EXTT6=
EXTT7=
EXTT8=
EXTT9=
EXTT10=
EXTT11=
EXTT12=
EXTT13=
PLAYORDER=
